<svg id="Layer_1" data-name="Layer 1" xmlns="http://www.w3.org/2000/svg" viewBox="0 0 512 512"><defs><style>.cls-1{fill:#141f38;}</style></defs><title>gameboy-glyph</title><path class="cls-1" d="M358.4,83.2V224a6.41,6.41,0,0,1-6.4,6.4H160a6.41,6.41,0,0,1-6.4-6.4V83.2a6.41,6.41,0,0,1,6.4-6.4H352A6.41,6.41,0,0,1,358.4,83.2ZM435.2,64V448a64,64,0,0,1-64,64H140.8a64,64,0,0,1-64-64V64a64,64,0,0,1,64-64H371.2A64,64,0,0,1,435.2,64ZM192,345.6h12.8a12.8,12.8,0,0,0,0-25.6H192V307.2a12.8,12.8,0,0,0-25.6,0V320H153.6a12.8,12.8,0,1,0,0,25.6h12.8v12.8a12.8,12.8,0,0,0,25.6,0Zm51.2,89.6a12.8,12.8,0,0,0-12.8-12.8H217.6a12.8,12.8,0,1,0,0,25.6h12.8A12.8,12.8,0,0,0,243.2,435.2Zm64,0a12.8,12.8,0,0,0-12.8-12.8H281.6a12.8,12.8,0,0,0,0,25.6h12.8A12.8,12.8,0,0,0,307.2,435.2ZM320,332.8a12.8,12.8,0,1,0-12.8,12.8A12.8,12.8,0,0,0,320,332.8Zm25.6,25.6a12.8,12.8,0,1,0-12.8,12.8A12.8,12.8,0,0,0,345.6,358.4ZM332.8,320A12.8,12.8,0,1,0,320,307.2,12.8,12.8,0,0,0,332.8,320Zm38.4,12.8a12.8,12.8,0,1,0-12.8,12.8A12.8,12.8,0,0,0,371.2,332.8ZM384,83.2a32,32,0,0,0-32-32H160a32,32,0,0,0-32,32V224a32,32,0,0,0,32,32H352a32,32,0,0,0,32-32Z"/></svg>