<svg id="Layer_1" data-name="Layer 1" xmlns="http://www.w3.org/2000/svg" viewBox="0 0 512 512"><defs><style>.cls-1{fill:#141f38;}</style></defs><title>pendrive-glyph</title><path class="cls-1" d="M271.29,51.78,18.32,305a62.64,62.64,0,0,0,0,88.53L118.4,493.66a62.51,62.51,0,0,0,88.46,0l253-253.19Z"/><path class="cls-1" d="M446,191.25l56.83-56.88a31.32,31.32,0,0,0,0-44.27L422,9.17a31.26,31.26,0,0,0-44.23,0L320.91,66ZM433.72,90.87l25,25-17.69,17.71-25-25ZM396.2,53.3l25,25L403.53,96.05l-25-25Z"/></svg>